<?xml version="1.0" standalone="no"?>
<!DOCTYPE svg PUBLIC "-//W3C//DTD SVG 20010904//EN"
 "http://www.w3.org/TR/2001/REC-SVG-20010904/DTD/svg10.dtd">
<svg version="1.0" xmlns="http://www.w3.org/2000/svg"
 width="1600.000000pt" height="1600.000000pt" viewBox="0 0 1600.000000 1600.000000"
 preserveAspectRatio="xMidYMid meet">
<metadata>
Created by potrace 1.14, written by Peter Selinger 2001-2017
</metadata>
<g transform="translate(0.000000,1600.000000) scale(0.100000,-0.100000)"
fill="#000000" stroke="none">
<path d="M2370 10748 c-25 -28 -58 -65 -75 -82 -34 -37 -161 -177 -220 -244
-22 -25 -47 -53 -55 -62 -8 -9 -44 -49 -80 -90 -36 -41 -68 -77 -71 -80 -9 -7
-208 -239 -247 -288 -19 -22 -43 -51 -54 -64 -10 -13 -27 -32 -36 -43 -27 -33
-205 -256 -242 -305 -19 -25 -38 -46 -42 -48 -5 -2 -8 -10 -8 -17 0 -7 -4 -15
-8 -17 -5 -1 -36 -41 -70 -88 -34 -47 -65 -89 -69 -95 -5 -5 -33 -46 -63 -90
-30 -44 -58 -84 -63 -90 -14 -18 -97 -147 -97 -150 0 -1 -18 -30 -40 -63 -22
-33 -40 -63 -40 -67 0 -5 -6 -16 -14 -24 -8 -9 -26 -38 -41 -66 -14 -27 -36
-66 -47 -85 -44 -74 -156 -300 -150 -300 4 0 2 -4 -3 -8 -6 -4 -19 -27 -29
-52 -11 -25 -32 -73 -48 -108 -15 -35 -28 -65 -28 -66 0 -2 -8 -21 -17 -42 -9
-22 -18 -43 -19 -49 -1 -5 -16 -48 -34 -95 -27 -72 -84 -252 -95 -300 -36
-151 -36 -154 -54 -250 -10 -55 -13 -72 -28 -185 -10 -77 -10 -454 1 -520 11
-70 13 -76 31 -162 11 -52 14 -63 28 -104 43 -126 102 -254 149 -321 10 -14
18 -29 18 -32 0 -4 4 -12 10 -19 5 -7 35 -45 66 -85 78 -104 202 -226 329
-325 60 -47 229 -139 330 -180 122 -50 276 -96 375 -112 19 -3 46 -7 60 -10
14 -2 43 -7 66 -10 23 -3 61 -8 85 -12 57 -8 506 -8 584 0 118 12 244 28 270
34 11 2 36 6 55 8 19 3 46 7 60 10 14 3 39 8 55 10 17 3 75 15 130 26 55 12
107 22 115 24 8 2 51 13 95 25 44 11 89 23 100 24 11 2 20 4 20 5 0 2 7 4 15
6 8 1 35 8 60 16 25 7 50 14 55 15 25 7 162 48 185 56 53 19 208 69 220 72 20
5 210 74 235 85 11 5 34 14 50 20 24 8 251 100 355 144 14 5 30 11 35 12 6 2
37 15 70 29 33 15 69 31 80 36 11 5 211 90 445 190 234 99 434 185 445 190 11
5 43 18 70 30 28 11 58 25 67 30 10 6 25 10 33 10 8 0 15 4 15 10 0 5 3 9 8 8
8 -1 24 5 89 33 23 11 44 19 47 19 3 0 36 14 73 31 37 17 79 36 93 41 28 12
71 30 115 49 17 7 32 13 35 14 7 2 74 32 203 89 32 14 59 26 61 26 2 0 21 8
42 17 22 9 41 17 44 18 7 2 79 33 190 82 25 11 86 37 135 58 50 21 104 44 121
51 16 7 84 36 149 64 65 28 135 58 154 66 20 9 45 20 56 24 11 5 46 20 78 34
32 14 60 26 62 26 3 0 24 9 48 19 23 11 281 122 572 246 292 125 544 233 560
240 17 8 111 48 210 90 99 42 200 85 224 96 24 11 67 29 95 40 28 11 65 27 81
34 17 7 64 28 105 45 41 18 99 43 128 56 29 13 56 24 60 24 4 0 23 8 42 19 19
10 37 18 40 18 3 0 25 9 50 20 25 11 90 40 145 63 55 23 118 50 140 60 45 19
77 33 85 35 3 0 20 9 37 18 18 10 34 17 35 16 2 -1 20 5 41 14 51 23 86 38
202 87 55 23 118 51 140 60 22 10 74 33 115 50 41 17 84 35 95 40 120 54 154
67 159 62 3 -3 6 -1 6 5 0 6 11 14 25 17 14 4 55 20 91 36 35 17 66 30 68 30
2 0 25 10 52 22 27 12 51 23 54 23 3 0 27 11 54 23 27 12 50 22 52 22 2 0 23
9 47 19 97 44 233 103 242 105 6 2 32 13 58 24 27 12 60 25 73 28 13 3 24 10
24 15 0 5 7 9 15 9 8 0 23 4 33 10 33 19 135 60 148 60 8 0 14 5 14 10 0 6 6
10 14 10 7 0 40 12 72 27 33 15 61 28 64 29 3 0 16 5 30 11 14 6 75 32 135 58
61 25 128 54 150 64 22 10 119 51 215 92 96 40 178 78 182 84 4 5 8 7 8 3 0
-4 30 7 68 23 81 37 114 51 127 55 6 1 69 28 140 58 136 59 143 62 215 94 25
11 106 45 180 77 139 59 203 86 255 110 17 7 53 22 80 33 28 11 70 29 95 41
25 11 48 20 53 20 4 0 20 7 35 14 15 8 38 19 52 25 35 15 106 46 172 75 31 14
59 23 62 19 3 -3 6 0 6 6 0 7 5 12 11 12 9 0 68 24 184 75 17 8 59 26 95 41
36 14 83 35 105 45 64 29 279 121 290 123 6 2 37 15 70 30 33 16 66 29 73 29
6 0 12 4 12 9 0 4 6 8 14 8 8 0 27 6 43 14 32 17 105 50 113 51 3 1 22 9 43
18 20 9 39 17 42 17 5 1 96 41 173 76 29 13 56 24 60 24 4 1 25 9 47 20 22 11
46 19 53 20 6 0 12 4 12 10 0 5 3 9 8 8 12 -4 81 23 88 34 4 5 -4 4 -17 -3
-13 -7 -25 -12 -27 -11 -1 2 -12 0 -25 -3 -13 -4 -32 -8 -43 -10 -10 -2 -19
-4 -19 -5 0 -1 -7 -3 -15 -5 -8 -1 -35 -8 -60 -15 -25 -7 -52 -14 -60 -15 -8
-2 -118 -31 -245 -65 -126 -34 -237 -64 -245 -66 -26 -6 -204 -54 -295 -79
-33 -9 -67 -18 -75 -20 -8 -2 -60 -15 -115 -30 -55 -14 -109 -28 -120 -31 -25
-6 -29 -8 -85 -23 -49 -14 -74 -20 -105 -26 -11 -3 -58 -15 -105 -29 -47 -14
-96 -27 -110 -30 -14 -3 -68 -17 -120 -31 -88 -24 -305 -82 -340 -91 -8 -2
-31 -8 -50 -13 -19 -5 -79 -21 -132 -35 -54 -13 -102 -27 -106 -30 -5 -3 -19
-7 -33 -9 -13 -3 -44 -10 -69 -17 -25 -7 -49 -13 -55 -14 -5 -2 -30 -8 -55
-15 -25 -7 -52 -15 -60 -16 -8 -2 -51 -13 -95 -25 -44 -12 -87 -24 -95 -26 -8
-2 -67 -17 -130 -34 -63 -17 -122 -33 -130 -35 -8 -2 -15 -4 -15 -5 0 -1 -9
-3 -20 -5 -11 -2 -47 -11 -80 -20 -33 -9 -69 -19 -80 -22 -39 -8 -50 -11 -50
-13 0 -2 -12 -5 -50 -13 -11 -3 -81 -22 -155 -42 -74 -20 -143 -38 -152 -40
-10 -2 -62 -16 -115 -31 -54 -15 -105 -28 -113 -29 -8 -1 -22 -5 -30 -8 -8 -4
-33 -11 -55 -16 -22 -5 -58 -15 -80 -21 -22 -6 -47 -12 -55 -14 -8 -2 -60 -16
-115 -31 -168 -44 -369 -97 -380 -99 -5 -1 -14 -4 -20 -7 -5 -4 -28 -10 -50
-14 -22 -4 -44 -10 -50 -13 -5 -3 -16 -7 -25 -8 -8 -1 -24 -5 -35 -8 -35 -10
-180 -48 -195 -51 -8 -2 -67 -18 -130 -35 -63 -17 -158 -42 -210 -56 -52 -14
-179 -47 -281 -75 -103 -27 -195 -52 -205 -54 -11 -2 -34 -8 -52 -14 -18 -5
-36 -11 -40 -12 -4 -1 -11 -3 -17 -4 -10 -3 -62 -16 -80 -20 -5 -2 -30 -8 -55
-15 -25 -7 -52 -14 -60 -15 -8 -2 -15 -4 -15 -5 0 -1 -11 -4 -25 -7 -31 -6
-41 -9 -60 -16 -13 -5 -376 -101 -420 -112 -16 -3 -166 -43 -290 -77 -41 -11
-82 -21 -90 -23 -74 -19 -214 -56 -220 -60 -4 -2 -20 -7 -36 -10 -16 -3 -54
-12 -84 -20 -55 -16 -74 -21 -107 -29 -10 -3 -45 -12 -78 -21 -110 -29 -290
-77 -305 -81 -59 -14 -192 -49 -280 -74 -58 -16 -116 -31 -130 -34 -14 -3 -92
-24 -175 -46 -82 -23 -159 -44 -169 -46 -10 -2 -33 -8 -51 -14 -18 -6 -42 -12
-54 -15 -26 -5 -312 -81 -356 -94 -16 -5 -46 -13 -65 -17 -47 -11 -50 -11 -52
-14 -3 -2 -16 -5 -53 -13 -50 -12 -112 -29 -135 -37 -14 -6 -36 -12 -50 -14
-14 -3 -25 -5 -25 -6 0 -1 -7 -3 -15 -5 -8 -1 -127 -33 -265 -69 -137 -37
-257 -68 -265 -70 -8 -2 -51 -14 -95 -25 -44 -12 -87 -23 -95 -26 -8 -2 -44
-11 -80 -20 -36 -10 -69 -18 -75 -20 -5 -1 -17 -5 -25 -8 -14 -6 -128 -36
-161 -42 -8 -2 -39 -10 -67 -19 -29 -8 -52 -12 -52 -9 0 3 -7 -1 -17 -8 -9 -8
-19 -13 -22 -12 -3 2 -22 0 -41 -4 -43 -9 -42 -8 -60 -16 -21 -8 -171 -48
-195 -51 -11 -2 -27 -6 -35 -9 -8 -4 -33 -11 -55 -16 -22 -6 -94 -24 -160 -41
-66 -17 -136 -33 -155 -36 -19 -3 -43 -7 -52 -10 -30 -9 -58 -14 -188 -34 -41
-6 -86 -13 -100 -16 -14 -2 -52 -6 -85 -10 -33 -3 -71 -7 -85 -10 -21 -3 -205
-13 -338 -17 -23 -1 -42 0 -42 3 0 3 -35 5 -78 6 -198 2 -435 45 -607 111 -69
26 -235 109 -245 122 -3 3 -27 22 -55 41 -65 45 -76 55 -144 120 -85 83 -184
207 -227 285 -86 156 -123 260 -159 435 -33 159 -38 453 -11 617 3 16 8 51 12
78 3 28 8 57 10 65 22 97 45 199 50 215 3 11 6 25 8 30 24 87 78 255 96 300
24 58 42 104 46 120 1 6 13 33 25 60 13 28 24 52 24 55 1 3 8 21 17 40 8 19
16 38 17 42 9 27 175 346 187 359 8 8 14 19 14 24 0 4 14 30 31 57 16 28 29
52 27 54 -2 2 -24 -20 -48 -48z"/>
</g>
</svg>
